<?xml version="1.0" encoding="utf-8"?>
<!-- Generator: Adobe Illustrator 16.0.0, SVG Export Plug-In . SVG Version: 6.00 Build 0)  -->
<!DOCTYPE svg PUBLIC "-//W3C//DTD SVG 1.1//EN" "http://www.w3.org/Graphics/SVG/1.1/DTD/svg11.dtd">
<svg version="1.1" id="Layer_2" xmlns="http://www.w3.org/2000/svg" xmlns:xlink="http://www.w3.org/1999/xlink" x="0px" y="0px"
	 width="549px" height="346px" viewBox="0 0 549 346" enable-background="new 0 0 549 346" xml:space="preserve">
<path fill="#FF0000" d="M538.645,21.769c-4.958-15.702-18.703-16.529-27.794-17.355S57,4.32,30.686,8.545
	C17.629,10.642,8.372,11.851,7.545,29.207c0,0-8.295,243.543,0,292.562c1.249,7.379,13.223,17.355,33.058,18.182
	s479.796,3.211,487.604,0c8.795-3.617,11.57-14.876,12.396-33.058s4.133-131.405,4.133-151.24S543.603,37.471,538.645,21.769z
	 M40.334,327.463c-6.271,0-16.703-0.681-20.667-11.13c-7.333-19.333,1.989-263.667,2-275C21.674,34.368,18.708,21.5,43.001,21.5
	C43.001,21.5,38.334,326,40.334,327.463z M80.334,326.501l-26,1.284l3.333-306.977L80.334,21.5
	C74.334,47,80.334,326.501,80.334,326.501z M97.001,327.463c-6.667-5.203-3.333-307.735-3.333-307.735l22,1.081
	c-1.333,10.809,5.333,306.654,5.333,306.654S97.667,328,97.001,327.463z M136.334,326.5c-5.333-4.166-6.667-305-6.667-305l26-2.284
	l8,306.906C163.667,326.122,141.667,330.666,136.334,326.5z M205.667,326.5c-1.333-0.166-22.334,4.501-26.667-3.834
	c-4.182-8.046-8.667-301.333-5.333-302.938s23.333,1.081,23.333,1.081C195.001,40.284,207.001,326.666,205.667,326.5z
	 M245.667,326.5c0,0-21.333,0.166-24.667-3.834S210.334,19.728,210.334,19.728l31.333,1.755
	C247.667,38.134,245.667,326.5,245.667,326.5z M261.001,326.5c-0.667-2.166-4.667-303.167-3.333-305s16.667-2.833,20.333-0.017
	c1.666,9.333,6.334,305.017,6.334,305.017S261.667,328.666,261.001,326.5z M297.001,327C294.334,316,292,22,292,22h28l4.334,305
	H297.001z M360,328.743c0,1.743-24,2.257-26,0S332,23,334,21.483s25.104-5.138,26,0C363.005,38.708,360,327,360,328.743z M403,326
	c1,6-29,2.31-29,2.31s-0.996-289.547,1-306.827c0,0,22-1.517,28,0S402,320,403,326z M444.336,328.743c0,0-27.037,3.523-26,0
	c2.309-7.843-1.334-306.074,4-307.26s25.333-1.48,30,0L444.336,328.743z M487.668,327.335c0,0-27.334,1.999-27.334,1.333
	s1.333-294.333,4-307c0,0,18.001-2.667,23.334,0S487.668,327.335,487.668,327.335z M527.729,315.333
	C527.25,330.529,505,328.237,503,327.785c0-1.119,0-306.285,0-306.285c9,0,20-0.167,23.334,5.167S530.877,164,531.543,171
	S528.128,302.69,527.729,315.333z"/>
</svg>
